<svg xmlns="http://www.w3.org/2000/svg" viewBox="0 0 200 200">
  <rect width="200" height="200" fill="#F8FAFC"/>
  <line x1="100" y1="100" x2="50" y2="55" stroke="#3730A3" stroke-width="1.5" opacity="0.5"/>
  <line x1="100" y1="100" x2="150" y2="55" stroke="#3730A3" stroke-width="1.5" opacity="0.5"/>
  <line x1="100" y1="100" x2="45" y2="130" stroke="#3730A3" stroke-width="1.5" opacity="0.5"/>
  <line x1="100" y1="100" x2="155" y2="130" stroke="#3730A3" stroke-width="1.5" opacity="0.5"/>
  <line x1="100" y1="100" x2="100" y2="38" stroke="#3730A3" stroke-width="1.5" opacity="0.5"/>
  <line x1="100" y1="100" x2="162" y2="100" stroke="#3730A3" stroke-width="1.5" opacity="0.5"/>
  <line x1="50" y1="55" x2="150" y2="55" stroke="#3730A3" stroke-width="1.5" opacity="0.4"/>
  <line x1="50" y1="55" x2="45" y2="130" stroke="#3730A3" stroke-width="1.5" opacity="0.4"/>
  <line x1="150" y1="55" x2="155" y2="130" stroke="#3730A3" stroke-width="1.5" opacity="0.4"/>
  <line x1="45" y1="130" x2="155" y2="130" stroke="#3730A3" stroke-width="1.5" opacity="0.4"/>
  <circle cx="100" cy="100" r="9" fill="#3730A3"/>
  <circle cx="50" cy="55" r="5" fill="#3730A3"/>
  <circle cx="150" cy="55" r="5" fill="#3730A3"/>
  <circle cx="45" cy="130" r="5" fill="#3730A3"/>
  <circle cx="155" cy="130" r="5" fill="#3730A3"/>
  <circle cx="100" cy="38" r="5" fill="#3730A3"/>
  <circle cx="162" cy="100" r="5" fill="#3730A3"/>
</svg>
