<svg xmlns="http://www.w3.org/2000/svg" viewBox="0 0 200 200">
  <rect width="200" height="200" fill="#F8FAFC"/>
  <circle cx="100" cy="100" r="8" fill="#3730A3"/>
  <line x1="100" y1="100" x2="100" y2="35" stroke="#3730A3" stroke-width="2.5" stroke-linecap="round"/>
  <line x1="100" y1="100" x2="100" y2="165" stroke="#3730A3" stroke-width="2.5" stroke-linecap="round"/>
  <line x1="100" y1="100" x2="35" y2="100" stroke="#3730A3" stroke-width="2.5" stroke-linecap="round"/>
  <line x1="100" y1="100" x2="165" y2="100" stroke="#3730A3" stroke-width="2.5" stroke-linecap="round"/>
  <line x1="100" y1="100" x2="54" y2="54" stroke="#3730A3" stroke-width="2" stroke-linecap="round"/>
  <line x1="100" y1="100" x2="146" y2="54" stroke="#3730A3" stroke-width="2" stroke-linecap="round"/>
  <line x1="100" y1="100" x2="54" y2="146" stroke="#3730A3" stroke-width="2" stroke-linecap="round"/>
  <line x1="100" y1="100" x2="146" y2="146" stroke="#3730A3" stroke-width="2" stroke-linecap="round"/>
  <circle cx="100" cy="32" r="4" fill="#3730A3"/>
  <circle cx="100" cy="168" r="4" fill="#3730A3"/>
  <circle cx="32" cy="100" r="4" fill="#3730A3"/>
  <circle cx="168" cy="100" r="4" fill="#3730A3"/>
  <circle cx="51" cy="51" r="4" fill="#3730A3"/>
  <circle cx="149" cy="51" r="4" fill="#3730A3"/>
  <circle cx="51" cy="149" r="4" fill="#3730A3"/>
  <circle cx="149" cy="149" r="4" fill="#3730A3"/>
</svg>
